<?xml version="1.0" encoding="UTF-8" standalone="no"?>
<!DOCTYPE svg PUBLIC "-//W3C//DTD SVG 1.1//EN"
 "http://www.w3.org/Graphics/SVG/1.1/DTD/svg11.dtd">
<!-- Generated by graphviz version 2.26.3 (20100126.1600)
 -->
<!-- Title: G Pages: 1 -->
<svg width="487pt" height="682pt"
 viewBox="0.00 0.00 487.00 682.00" xmlns="http://www.w3.org/2000/svg" xmlns:xlink="http://www.w3.org/1999/xlink">
<g id="graph1" class="graph" transform="scale(1 1) rotate(0) translate(4 678)">
<title>G</title>
<polygon fill="white" stroke="white" points="-4,5 -4,-678 484,-678 484,5 -4,5"/>
<!-- Start -->
<g id="node1" class="node"><title>Start</title>
<polygon fill="none" stroke="black" points="11,-637 11,-673 65,-673 65,-637 11,-637"/>
<text text-anchor="middle" x="38" y="-650.9" font-family="Times Roman,serif" font-size="14.00">Start</text>
</g>
<!-- A -->
<g id="node2" class="node"><title>A</title>
<polygon fill="none" stroke="black" points="110,-531 110,-581 164,-581 164,-531 110,-531"/>
<text text-anchor="middle" x="137" y="-564.4" font-family="Times Roman,serif" font-size="14.00">A</text>
<polyline fill="none" stroke="black" points="110,-556 164,-556 "/>
<text text-anchor="middle" x="137" y="-539.4" font-family="Times Roman,serif" font-size="14.00">9&#45;13</text>
</g>
<!-- Start&#45;&gt;A -->
<g id="edge2" class="edge"><title>Start&#45;&gt;A</title>
<path fill="none" stroke="black" d="M56.1581,-636.842C69.7122,-623.288 88.5923,-604.408 104.698,-588.302"/>
<polygon fill="black" stroke="black" points="107.278,-590.672 111.874,-581.126 102.328,-585.722 107.278,-590.672"/>
<text text-anchor="middle" x="99.5" y="-604.9" font-family="Times Roman,serif" font-size="14.00">30</text>
</g>
<!-- B -->
<g id="node3" class="node"><title>B</title>
<polygon fill="none" stroke="black" points="0,-425 0,-475 54,-475 54,-425 0,-425"/>
<text text-anchor="middle" x="27" y="-458.4" font-family="Times Roman,serif" font-size="14.00">B</text>
<polyline fill="none" stroke="black" points="0,-450 54,-450 "/>
<text text-anchor="middle" x="27" y="-433.4" font-family="Times Roman,serif" font-size="14.00">9&#45;11</text>
</g>
<!-- Start&#45;&gt;B -->
<g id="edge4" class="edge"><title>Start&#45;&gt;B</title>
<path fill="none" stroke="black" d="M33.0272,-636.68C25.5338,-606.836 12.7522,-545.843 18,-494 18.2871,-491.164 18.6758,-488.24 19.1312,-485.312"/>
<polygon fill="black" stroke="black" points="22.5782,-485.918 20.8857,-475.459 15.6867,-484.691 22.5782,-485.918"/>
<text text-anchor="middle" x="31.5" y="-551.9" font-family="Times Roman,serif" font-size="14.00">18</text>
</g>
<!-- A&#45;&gt;B -->
<g id="edge6" class="edge"><title>A&#45;&gt;B</title>
<path fill="none" stroke="black" d="M109.822,-553.358C83.9647,-549.245 46.3648,-538.75 28,-512 22.7319,-504.327 20.9082,-494.764 20.8033,-485.464"/>
<polygon fill="black" stroke="black" points="24.3132,-485.354 21.323,-475.19 17.3222,-485 24.3132,-485.354"/>
<text text-anchor="middle" x="37.5" y="-498.9" font-family="Times Roman,serif" font-size="14.00">18</text>
</g>
<!-- C -->
<g id="node4" class="node"><title>C</title>
<polygon fill="none" stroke="black" points="150,-425 150,-475 208,-475 208,-425 150,-425"/>
<text text-anchor="middle" x="179" y="-458.4" font-family="Times Roman,serif" font-size="14.00">C</text>
<polyline fill="none" stroke="black" points="150,-450 208,-450 "/>
<text text-anchor="middle" x="179" y="-433.4" font-family="Times Roman,serif" font-size="14.00">12&#45;15</text>
</g>
<!-- A&#45;&gt;C -->
<g id="edge10" class="edge"><title>A&#45;&gt;C</title>
<path fill="none" stroke="black" d="M133.364,-530.744C132.7,-519.16 133.372,-505.483 138,-494 139.494,-490.293 141.458,-486.71 143.718,-483.298"/>
<polygon fill="black" stroke="black" points="146.607,-485.281 149.847,-475.194 141.024,-481.059 146.607,-485.281"/>
<text text-anchor="middle" x="147.5" y="-498.9" font-family="Times Roman,serif" font-size="14.00">21</text>
</g>
<!-- D -->
<g id="node5" class="node"><title>D</title>
<polygon fill="none" stroke="black" points="259,-107 259,-157 317,-157 317,-107 259,-107"/>
<text text-anchor="middle" x="288" y="-140.4" font-family="Times Roman,serif" font-size="14.00">D</text>
<polyline fill="none" stroke="black" points="259,-132 317,-132 "/>
<text text-anchor="middle" x="288" y="-115.4" font-family="Times Roman,serif" font-size="14.00">12&#45;17</text>
</g>
<!-- A&#45;&gt;D -->
<g id="edge18" class="edge"><title>A&#45;&gt;D</title>
<path fill="none" stroke="black" d="M128.425,-530.817C109.401,-469.993 70.4502,-312.674 138,-212 163.668,-173.745 213.801,-152.398 249.022,-141.564"/>
<polygon fill="black" stroke="black" points="250.361,-144.819 258.979,-138.656 248.398,-138.1 250.361,-144.819"/>
<text text-anchor="middle" x="110.5" y="-339.9" font-family="Times Roman,serif" font-size="14.00">38</text>
</g>
<!-- F -->
<g id="node7" class="node"><title>F</title>
<polygon fill="none" stroke="black" points="335,-319 335,-369 393,-369 393,-319 335,-319"/>
<text text-anchor="middle" x="364" y="-352.4" font-family="Times Roman,serif" font-size="14.00">F</text>
<polyline fill="none" stroke="black" points="335,-344 393,-344 "/>
<text text-anchor="middle" x="364" y="-327.4" font-family="Times Roman,serif" font-size="14.00">13&#45;16</text>
</g>
<!-- A&#45;&gt;F -->
<g id="edge14" class="edge"><title>A&#45;&gt;F</title>
<path fill="none" stroke="black" d="M164.234,-553.252C211.168,-547.959 304.438,-534.807 327,-512 361.654,-476.97 367.008,-417.312 366.436,-379.321"/>
<polygon fill="black" stroke="black" points="369.931,-379.11 366.136,-369.218 362.934,-379.318 369.931,-379.11"/>
<text text-anchor="middle" x="372.5" y="-445.9" font-family="Times Roman,serif" font-size="14.00">22</text>
</g>
<!-- B&#45;&gt;A -->
<g id="edge8" class="edge"><title>B&#45;&gt;A</title>
<path fill="none" stroke="black" d="M41.3664,-475.218C48.9322,-487.194 58.9327,-501.209 70,-512 79.1854,-520.956 90.4437,-529.167 101.091,-536.009"/>
<polygon fill="black" stroke="black" points="99.4869,-539.133 109.832,-541.421 103.172,-533.181 99.4869,-539.133"/>
<text text-anchor="middle" x="79.5" y="-498.9" font-family="Times Roman,serif" font-size="14.00">30</text>
</g>
<!-- C&#45;&gt;A -->
<g id="edge12" class="edge"><title>C&#45;&gt;A</title>
<path fill="none" stroke="black" d="M170.599,-475.222C166.686,-486.55 161.833,-500.033 157,-512 155.775,-515.034 154.458,-518.165 153.108,-521.293"/>
<polygon fill="black" stroke="black" points="149.85,-520.006 149.007,-530.567 156.252,-522.837 149.85,-520.006"/>
<text text-anchor="middle" x="172.5" y="-498.9" font-family="Times Roman,serif" font-size="14.00">30</text>
</g>
<!-- C&#45;&gt;D -->
<g id="edge22" class="edge"><title>C&#45;&gt;D</title>
<path fill="none" stroke="black" d="M174.435,-424.993C166.398,-372.811 155.578,-250.966 213,-176 222.472,-163.634 236.494,-154.088 249.858,-147.098"/>
<polygon fill="black" stroke="black" points="251.49,-150.196 258.941,-142.664 248.42,-143.905 251.49,-150.196"/>
<text text-anchor="middle" x="180.5" y="-286.9" font-family="Times Roman,serif" font-size="14.00">38</text>
</g>
<!-- E -->
<g id="node6" class="node"><title>E</title>
<polygon fill="none" stroke="black" points="259,-1 259,-51 317,-51 317,-1 259,-1"/>
<text text-anchor="middle" x="288" y="-34.4" font-family="Times Roman,serif" font-size="14.00">E</text>
<polyline fill="none" stroke="black" points="259,-26 317,-26 "/>
<text text-anchor="middle" x="288" y="-9.4" font-family="Times Roman,serif" font-size="14.00">14&#45;17</text>
</g>
<!-- C&#45;&gt;E -->
<g id="edge34" class="edge"><title>C&#45;&gt;E</title>
<path fill="none" stroke="black" d="M149.825,-440.793C111.497,-426.66 49,-395.69 49,-344 49,-344 49,-344 49,-132 49,-87.3671 88.144,-90.0897 128,-70 166.818,-50.4337 215.462,-38.6467 248.863,-32.266"/>
<polygon fill="black" stroke="black" points="249.508,-35.7061 258.711,-30.4568 248.244,-28.8213 249.508,-35.7061"/>
<text text-anchor="middle" x="58.5" y="-233.9" font-family="Times Roman,serif" font-size="14.00">20</text>
</g>
<!-- C&#45;&gt;F -->
<g id="edge30" class="edge"><title>C&#45;&gt;F</title>
<path fill="none" stroke="black" d="M208.307,-433.574C222.955,-425.336 240.938,-415.183 257,-406 280.055,-392.819 305.811,-377.9 326.276,-366.001"/>
<polygon fill="black" stroke="black" points="328.104,-368.987 334.987,-360.932 324.584,-362.936 328.104,-368.987"/>
<text text-anchor="middle" x="295.5" y="-392.9" font-family="Times Roman,serif" font-size="14.00">22</text>
</g>
<!-- D&#45;&gt;A -->
<g id="edge20" class="edge"><title>D&#45;&gt;A</title>
<path fill="none" stroke="black" d="M287.678,-157.043C287.615,-168.337 287.656,-181.842 288,-194 290.445,-280.326 296.555,-301.674 299,-388 299.227,-395.997 302.179,-398.659 299,-406 273.51,-464.86 212.121,-510.864 172.659,-535.668"/>
<polygon fill="black" stroke="black" points="170.791,-532.708 164.107,-540.929 174.458,-538.671 170.791,-532.708"/>
<text text-anchor="middle" x="307.5" y="-339.9" font-family="Times Roman,serif" font-size="14.00">30</text>
</g>
<!-- D&#45;&gt;C -->
<g id="edge24" class="edge"><title>D&#45;&gt;C</title>
<path fill="none" stroke="black" d="M263.64,-157.153C258.923,-162.999 254.398,-169.442 251,-176 209.738,-255.629 190.728,-360.834 183.204,-414.781"/>
<polygon fill="black" stroke="black" points="179.712,-414.487 181.849,-424.864 186.65,-415.419 179.712,-414.487"/>
<text text-anchor="middle" x="218.5" y="-286.9" font-family="Times Roman,serif" font-size="14.00">21</text>
</g>
<!-- D&#45;&gt;E -->
<g id="edge38" class="edge"><title>D&#45;&gt;E</title>
<path fill="none" stroke="black" d="M274.244,-106.575C271.661,-100.643 269.35,-94.2326 268,-88 266.052,-79.005 267.363,-69.4639 270.058,-60.6328"/>
<polygon fill="black" stroke="black" points="273.423,-61.6243 273.589,-51.0307 266.853,-59.2081 273.423,-61.6243"/>
<text text-anchor="middle" x="277.5" y="-74.9" font-family="Times Roman,serif" font-size="14.00">20</text>
</g>
<!-- D&#45;&gt;F -->
<g id="edge28" class="edge"><title>D&#45;&gt;F</title>
<path fill="none" stroke="black" d="M290.203,-157.089C293.206,-184.224 299.915,-228.378 314,-264 320.373,-280.118 330.021,-296.58 339.147,-310.348"/>
<polygon fill="black" stroke="black" points="336.504,-312.685 345.029,-318.975 342.288,-308.741 336.504,-312.685"/>
<text text-anchor="middle" x="323.5" y="-233.9" font-family="Times Roman,serif" font-size="14.00">22</text>
</g>
<!-- G -->
<g id="node8" class="node"><title>G</title>
<polygon fill="none" stroke="black" points="403,-213 403,-263 461,-263 461,-213 403,-213"/>
<text text-anchor="middle" x="432" y="-246.4" font-family="Times Roman,serif" font-size="14.00">G</text>
<polyline fill="none" stroke="black" points="403,-238 461,-238 "/>
<text text-anchor="middle" x="432" y="-221.4" font-family="Times Roman,serif" font-size="14.00">16&#45;17</text>
</g>
<!-- D&#45;&gt;G -->
<g id="edge42" class="edge"><title>D&#45;&gt;G</title>
<path fill="none" stroke="black" d="M317.21,-153.575C326.742,-160.671 337.354,-168.63 347,-176 357.315,-183.881 359.593,-186.242 370,-194 377.854,-199.855 386.365,-206.013 394.492,-211.807"/>
<polygon fill="black" stroke="black" points="392.597,-214.754 402.779,-217.685 396.647,-209.045 392.597,-214.754"/>
<text text-anchor="middle" x="375" y="-180.9" font-family="Times Roman,serif" font-size="14.00">9</text>
</g>
<!-- E&#45;&gt;C -->
<g id="edge36" class="edge"><title>E&#45;&gt;C</title>
<path fill="none" stroke="black" d="M261.157,-51.2319C228.04,-84.3997 173.485,-146.215 152,-212 129.268,-281.604 150.58,-368.053 166.102,-415.247"/>
<polygon fill="black" stroke="black" points="162.877,-416.635 169.406,-424.979 169.506,-414.385 162.877,-416.635"/>
<text text-anchor="middle" x="161.5" y="-233.9" font-family="Times Roman,serif" font-size="14.00">21</text>
</g>
<!-- E&#45;&gt;D -->
<g id="edge40" class="edge"><title>E&#45;&gt;D</title>
<path fill="none" stroke="black" d="M288,-51.3075C288,-64.837 288,-81.7145 288,-96.5317"/>
<polygon fill="black" stroke="black" points="284.5,-96.8794 288,-106.879 291.5,-96.8795 284.5,-96.8794"/>
<text text-anchor="middle" x="297.5" y="-74.9" font-family="Times Roman,serif" font-size="14.00">38</text>
</g>
<!-- E&#45;&gt;G -->
<g id="edge46" class="edge"><title>E&#45;&gt;G</title>
<path fill="none" stroke="black" d="M317.157,-30.3219C358.605,-37.0454 431.59,-51.2142 450,-70 484.258,-104.958 466.211,-165.718 449.489,-203.793"/>
<polygon fill="black" stroke="black" points="446.275,-202.405 445.298,-212.955 452.641,-205.316 446.275,-202.405"/>
<text text-anchor="middle" x="474" y="-127.9" font-family="Times Roman,serif" font-size="14.00">9</text>
</g>
<!-- F&#45;&gt;A -->
<g id="edge16" class="edge"><title>F&#45;&gt;A</title>
<path fill="none" stroke="black" d="M376.315,-369.329C387.792,-396.67 401.055,-440.999 386,-476 376.808,-497.371 368.614,-501.216 348,-512 318.221,-527.578 226.35,-542.958 174.184,-550.748"/>
<polygon fill="black" stroke="black" points="173.384,-547.328 164,-552.247 174.404,-554.253 173.384,-547.328"/>
<text text-anchor="middle" x="401.5" y="-445.9" font-family="Times Roman,serif" font-size="14.00">30</text>
</g>
<!-- F&#45;&gt;C -->
<g id="edge32" class="edge"><title>F&#45;&gt;C</title>
<path fill="none" stroke="black" d="M334.783,-359.485C326.884,-363.277 318.238,-367.08 310,-370 277.282,-381.597 263.793,-370.187 234,-388 230.353,-390.18 218.361,-403.549 206.502,-417.317"/>
<polygon fill="black" stroke="black" points="203.823,-415.065 199.982,-424.938 209.142,-419.615 203.823,-415.065"/>
<text text-anchor="middle" x="243.5" y="-392.9" font-family="Times Roman,serif" font-size="14.00">21</text>
</g>
<!-- F&#45;&gt;D -->
<g id="edge26" class="edge"><title>F&#45;&gt;D</title>
<path fill="none" stroke="black" d="M361.552,-318.714C357.41,-284.588 346.894,-222.692 322,-176 320.112,-172.459 317.941,-168.909 315.629,-165.445"/>
<polygon fill="black" stroke="black" points="318.318,-163.187 309.67,-157.067 312.614,-167.244 318.318,-163.187"/>
<text text-anchor="middle" x="360.5" y="-233.9" font-family="Times Roman,serif" font-size="14.00">38</text>
</g>
<!-- F&#45;&gt;G -->
<g id="edge50" class="edge"><title>F&#45;&gt;G</title>
<path fill="none" stroke="black" d="M377.792,-318.908C384.268,-307.484 392.254,-293.889 400,-282 402.199,-278.624 404.554,-275.152 406.952,-271.709"/>
<polygon fill="black" stroke="black" points="409.999,-273.462 412.935,-263.282 404.292,-269.409 409.999,-273.462"/>
<text text-anchor="middle" x="405" y="-286.9" font-family="Times Roman,serif" font-size="14.00">9</text>
</g>
<!-- G&#45;&gt;D -->
<g id="edge44" class="edge"><title>G&#45;&gt;D</title>
<path fill="none" stroke="black" d="M414.846,-212.843C405.582,-200.598 393.323,-186.329 380,-176 363.944,-163.552 343.797,-153.423 326.453,-146.035"/>
<polygon fill="black" stroke="black" points="327.729,-142.775 317.149,-142.215 325.071,-149.251 327.729,-142.775"/>
<text text-anchor="middle" x="406.5" y="-180.9" font-family="Times Roman,serif" font-size="14.00">38</text>
</g>
<!-- G&#45;&gt;E -->
<g id="edge48" class="edge"><title>G&#45;&gt;E</title>
<path fill="none" stroke="black" d="M430.188,-212.896C428.595,-201.216 425.605,-187.416 420,-176 396.885,-128.923 355.034,-85.1339 324.638,-57.1689"/>
<polygon fill="black" stroke="black" points="326.936,-54.5283 317.176,-50.4078 322.236,-59.7158 326.936,-54.5283"/>
<text text-anchor="middle" x="418.5" y="-127.9" font-family="Times Roman,serif" font-size="14.00">20</text>
</g>
<!-- G&#45;&gt;F -->
<g id="edge52" class="edge"><title>G&#45;&gt;F</title>
<path fill="none" stroke="black" d="M426.006,-263.063C422.479,-274.866 417.259,-288.781 410,-300 407.22,-304.297 403.94,-308.479 400.432,-312.448"/>
<polygon fill="black" stroke="black" points="397.813,-310.123 393.477,-319.79 402.895,-314.937 397.813,-310.123"/>
<text text-anchor="middle" x="428.5" y="-286.9" font-family="Times Roman,serif" font-size="14.00">22</text>
</g>
</g>
</svg>
